<?xml version="1.0" standalone="no"?>
<!DOCTYPE svg PUBLIC "-//W3C//DTD SVG 20010904//EN"
 "http://www.w3.org/TR/2001/REC-SVG-20010904/DTD/svg10.dtd">
<svg version="1.0" xmlns="http://www.w3.org/2000/svg"
 width="300.000000pt" height="300.000000pt" viewBox="0 0 300.000000 300.000000"
 preserveAspectRatio="xMidYMid meet">
<metadata>
Created by potrace 1.14, written by Peter Selinger 2001-2017
</metadata>
<g transform="translate(0.000000,300.000000) scale(0.100000,-0.100000)"
fill="#000000" stroke="none">
<path d="M1471 2477 c-14 -6 -44 -37 -68 -67 -80 -104 -83 -105 -124 -69 -56
50 -139 63 -180 30 -13 -10 -28 -34 -34 -52 -10 -29 -16 -34 -39 -31 -15 2
-46 -5 -70 -16 -40 -19 -69 -59 -90 -125 -9 -27 -44 0 -48 37 -3 25 -10 32
-48 47 -142 54 -244 85 -385 116 -84 18 -305 25 -357 10 l-28 -7 0 -429 c0
-346 3 -431 13 -440 8 -6 17 -8 20 -4 17 16 5 -27 -13 -50 -20 -25 -20 -40
-20 -726 l0 -701 1500 0 1500 0 0 1185 0 1184 -142 -3 c-149 -4 -216 -13 -308
-42 -128 -40 -266 -87 -283 -96 -32 -17 -91 0 -110 32 -38 64 -143 95 -187 55
-18 -17 -21 -16 -50 9 -47 39 -110 39 -179 -1 l-43 -25 -24 28 c-13 16 -23 36
-24 44 0 30 -40 80 -79 100 -46 23 -66 25 -100 7z m-451 -1493 c301 5 473 0
465 -14 -2 -3 -7 -120 -11 -258 l-6 -252 26 0 c15 0 28 6 31 12 10 31 11 488
1 498 -18 18 171 11 389 -16 230 -28 265 -26 387 12 44 14 82 23 85 21 17 -18
-90 -232 -154 -306 -46 -54 -209 -171 -237 -171 -3 0 -4 12 -1 28 2 15 7 81
10 146 2 66 8 147 11 182 6 58 5 62 -16 69 -33 10 -39 -3 -44 -90 -3 -44 -8
-98 -10 -120 -3 -22 -8 -84 -10 -139 -2 -54 -8 -102 -13 -106 -18 -18 -95 -31
-243 -42 -85 -6 -175 -11 -200 -10 -162 6 -360 23 -390 32 l-35 12 0 169 c0
93 -2 169 -5 169 -3 0 -5 35 -5 77 0 77 0 78 -25 78 l-25 0 2 -237 c2 -131 -1
-238 -4 -238 -15 0 -190 111 -211 133 -37 40 -92 121 -113 167 -11 25 -24 54
-30 65 -11 25 -49 136 -49 145 0 4 28 1 63 -7 47 -10 136 -12 367 -9z"/>
</g>
</svg>
